<mxfile host="Electron" modified="2024-04-08T15:48:16.842Z" agent="Mozilla/5.0 (Windows NT 10.0; Win64; x64) AppleWebKit/537.36 (KHTML, like Gecko) draw.io/24.1.0 Chrome/120.0.6099.109 Electron/28.1.0 Safari/537.36" etag="1djLPBBDskeq56GtQhwi" version="24.1.0" type="device">
  <diagram name="Page-1" id="tVQe4GWJFkeaRo_rlyZI">
    <mxGraphModel dx="1104" dy="879" grid="1" gridSize="10" guides="1" tooltips="1" connect="1" arrows="1" fold="1" page="1" pageScale="1" pageWidth="850" pageHeight="1100" math="0" shadow="0">
      <root>
        <mxCell id="0" />
        <mxCell id="1" parent="0" />
        <mxCell id="m2hpCEHAZhAkWBh7MES9-65" value="" style="rounded=0;whiteSpace=wrap;html=1;fillColor=none;strokeColor=#00F078;dashed=1;dashPattern=12 12;" vertex="1" parent="1">
          <mxGeometry x="1060" y="502" width="570" height="294" as="geometry" />
        </mxCell>
        <mxCell id="m2hpCEHAZhAkWBh7MES9-47" value="" style="rounded=0;whiteSpace=wrap;html=1;fillColor=none;dashed=1;dashPattern=12 12;" vertex="1" parent="1">
          <mxGeometry x="600" y="198" width="160" height="162" as="geometry" />
        </mxCell>
        <mxCell id="m2hpCEHAZhAkWBh7MES9-5" value="" style="rounded=0;whiteSpace=wrap;html=1;fillColor=none;dashed=1;dashPattern=12 12;strokeColor=#5D13F0;" vertex="1" parent="1">
          <mxGeometry y="280" width="240" height="520" as="geometry" />
        </mxCell>
        <mxCell id="m2hpCEHAZhAkWBh7MES9-2" value="Client / Frontend" style="text;html=1;align=center;verticalAlign=middle;resizable=0;points=[];autosize=1;strokeColor=none;fillColor=none;" vertex="1" parent="1">
          <mxGeometry y="250" width="110" height="30" as="geometry" />
        </mxCell>
        <mxCell id="m2hpCEHAZhAkWBh7MES9-33" style="edgeStyle=orthogonalEdgeStyle;rounded=0;orthogonalLoop=1;jettySize=auto;html=1;entryX=0;entryY=0.5;entryDx=0;entryDy=0;" edge="1" parent="1" source="m2hpCEHAZhAkWBh7MES9-3" target="m2hpCEHAZhAkWBh7MES9-32">
          <mxGeometry relative="1" as="geometry" />
        </mxCell>
        <mxCell id="m2hpCEHAZhAkWBh7MES9-3" value="" style="image;aspect=fixed;html=1;points=[];align=center;fontSize=12;image=img/lib/azure2/general/Dashboard2.svg;" vertex="1" parent="1">
          <mxGeometry x="21" y="580" width="195.51" height="138" as="geometry" />
        </mxCell>
        <mxCell id="m2hpCEHAZhAkWBh7MES9-4" value="Function Dashboard" style="text;html=1;align=center;verticalAlign=middle;resizable=0;points=[];autosize=1;strokeColor=none;fillColor=none;fontFamily=Helvetica;fontSize=12;fontColor=default;" vertex="1" parent="1">
          <mxGeometry x="13.999999999999986" y="556" width="130" height="30" as="geometry" />
        </mxCell>
        <mxCell id="m2hpCEHAZhAkWBh7MES9-11" style="edgeStyle=orthogonalEdgeStyle;rounded=0;orthogonalLoop=1;jettySize=auto;html=1;entryX=0;entryY=0.5;entryDx=0;entryDy=0;" edge="1" parent="1" source="m2hpCEHAZhAkWBh7MES9-7" target="m2hpCEHAZhAkWBh7MES9-9">
          <mxGeometry relative="1" as="geometry" />
        </mxCell>
        <mxCell id="m2hpCEHAZhAkWBh7MES9-16" style="edgeStyle=orthogonalEdgeStyle;rounded=0;orthogonalLoop=1;jettySize=auto;html=1;entryX=0;entryY=0.5;entryDx=0;entryDy=0;" edge="1" parent="1" source="m2hpCEHAZhAkWBh7MES9-7" target="m2hpCEHAZhAkWBh7MES9-10">
          <mxGeometry relative="1" as="geometry" />
        </mxCell>
        <mxCell id="m2hpCEHAZhAkWBh7MES9-7" value="" style="sketch=0;pointerEvents=1;shadow=0;dashed=0;html=1;strokeColor=none;labelPosition=center;verticalLabelPosition=bottom;verticalAlign=top;outlineConnect=0;align=center;shape=mxgraph.office.concepts.home_page;fillColor=#2072B8;" vertex="1" parent="1">
          <mxGeometry x="20.590000000000003" y="360" width="199.17" height="138" as="geometry" />
        </mxCell>
        <mxCell id="m2hpCEHAZhAkWBh7MES9-8" value="Landing / Sign Up / Authentication" style="text;html=1;align=center;verticalAlign=middle;resizable=0;points=[];autosize=1;strokeColor=none;fillColor=none;fontFamily=Helvetica;fontSize=12;fontColor=default;" vertex="1" parent="1">
          <mxGeometry x="14.169999999999987" y="336" width="200" height="30" as="geometry" />
        </mxCell>
        <mxCell id="m2hpCEHAZhAkWBh7MES9-14" style="edgeStyle=orthogonalEdgeStyle;rounded=0;orthogonalLoop=1;jettySize=auto;html=1;" edge="1" parent="1" source="m2hpCEHAZhAkWBh7MES9-9" target="m2hpCEHAZhAkWBh7MES9-12">
          <mxGeometry relative="1" as="geometry" />
        </mxCell>
        <mxCell id="m2hpCEHAZhAkWBh7MES9-9" value="Authentication Service" style="rounded=0;whiteSpace=wrap;html=1;" vertex="1" parent="1">
          <mxGeometry x="360" y="300" width="160" height="80" as="geometry" />
        </mxCell>
        <mxCell id="m2hpCEHAZhAkWBh7MES9-17" style="edgeStyle=orthogonalEdgeStyle;rounded=0;orthogonalLoop=1;jettySize=auto;html=1;entryX=0.5;entryY=1;entryDx=0;entryDy=0;" edge="1" parent="1" source="m2hpCEHAZhAkWBh7MES9-10" target="m2hpCEHAZhAkWBh7MES9-9">
          <mxGeometry relative="1" as="geometry" />
        </mxCell>
        <mxCell id="m2hpCEHAZhAkWBh7MES9-39" style="edgeStyle=orthogonalEdgeStyle;rounded=0;orthogonalLoop=1;jettySize=auto;html=1;entryX=0;entryY=0.5;entryDx=0;entryDy=0;" edge="1" parent="1" source="m2hpCEHAZhAkWBh7MES9-10" target="m2hpCEHAZhAkWBh7MES9-38">
          <mxGeometry relative="1" as="geometry" />
        </mxCell>
        <mxCell id="m2hpCEHAZhAkWBh7MES9-10" value="Authorization Service" style="rounded=0;whiteSpace=wrap;html=1;" vertex="1" parent="1">
          <mxGeometry x="360" y="418" width="160" height="80" as="geometry" />
        </mxCell>
        <mxCell id="m2hpCEHAZhAkWBh7MES9-12" value="" style="html=1;verticalLabelPosition=bottom;align=center;labelBackgroundColor=#ffffff;verticalAlign=top;strokeWidth=2;strokeColor=#0080F0;shadow=0;dashed=0;shape=mxgraph.ios7.icons.data;" vertex="1" parent="1">
          <mxGeometry x="415" y="170" width="50" height="70" as="geometry" />
        </mxCell>
        <mxCell id="m2hpCEHAZhAkWBh7MES9-15" value="Users" style="text;html=1;align=center;verticalAlign=middle;resizable=0;points=[];autosize=1;strokeColor=none;fillColor=none;" vertex="1" parent="1">
          <mxGeometry x="415" y="144" width="50" height="30" as="geometry" />
        </mxCell>
        <mxCell id="m2hpCEHAZhAkWBh7MES9-24" value="" style="html=1;verticalLabelPosition=bottom;align=center;labelBackgroundColor=#ffffff;verticalAlign=top;strokeWidth=2;strokeColor=#0080F0;shadow=0;dashed=0;shape=mxgraph.ios7.icons.data;" vertex="1" parent="1">
          <mxGeometry x="622.28" y="229" width="31.43" height="44" as="geometry" />
        </mxCell>
        <mxCell id="m2hpCEHAZhAkWBh7MES9-25" value="Roles" style="text;html=1;align=center;verticalAlign=middle;resizable=0;points=[];autosize=1;strokeColor=none;fillColor=none;fontSize=9;" vertex="1" parent="1">
          <mxGeometry x="613" y="211" width="50" height="20" as="geometry" />
        </mxCell>
        <mxCell id="m2hpCEHAZhAkWBh7MES9-30" value="&lt;font style=&quot;font-size: 9px;&quot;&gt;HTTP&lt;/font&gt;" style="text;html=1;align=center;verticalAlign=middle;resizable=0;points=[];autosize=1;strokeColor=none;fillColor=none;" vertex="1" parent="1">
          <mxGeometry x="233" y="407" width="50" height="30" as="geometry" />
        </mxCell>
        <mxCell id="m2hpCEHAZhAkWBh7MES9-52" style="edgeStyle=orthogonalEdgeStyle;rounded=0;orthogonalLoop=1;jettySize=auto;html=1;entryX=0;entryY=0.5;entryDx=0;entryDy=0;" edge="1" parent="1" source="m2hpCEHAZhAkWBh7MES9-32" target="m2hpCEHAZhAkWBh7MES9-51">
          <mxGeometry relative="1" as="geometry" />
        </mxCell>
        <mxCell id="m2hpCEHAZhAkWBh7MES9-32" value="Platform Proxy Service" style="rounded=0;whiteSpace=wrap;html=1;" vertex="1" parent="1">
          <mxGeometry x="360" y="609" width="160" height="80" as="geometry" />
        </mxCell>
        <mxCell id="m2hpCEHAZhAkWBh7MES9-35" value="&lt;font style=&quot;font-size: 9px;&quot;&gt;HTTP / WS&lt;/font&gt;" style="text;html=1;align=center;verticalAlign=middle;resizable=0;points=[];autosize=1;strokeColor=none;fillColor=none;" vertex="1" parent="1">
          <mxGeometry x="252" y="626" width="70" height="30" as="geometry" />
        </mxCell>
        <mxCell id="m2hpCEHAZhAkWBh7MES9-37" style="edgeStyle=orthogonalEdgeStyle;rounded=0;orthogonalLoop=1;jettySize=auto;html=1;entryX=0.5;entryY=1;entryDx=0;entryDy=0;" edge="1" parent="1" source="m2hpCEHAZhAkWBh7MES9-36" target="m2hpCEHAZhAkWBh7MES9-10">
          <mxGeometry relative="1" as="geometry" />
        </mxCell>
        <mxCell id="m2hpCEHAZhAkWBh7MES9-36" value="&lt;font style=&quot;font-size: 9px;&quot;&gt;Authorization Middleware&lt;/font&gt;" style="rounded=0;whiteSpace=wrap;html=1;" vertex="1" parent="1">
          <mxGeometry x="360" y="578" width="160" height="31" as="geometry" />
        </mxCell>
        <mxCell id="m2hpCEHAZhAkWBh7MES9-49" style="edgeStyle=orthogonalEdgeStyle;rounded=0;orthogonalLoop=1;jettySize=auto;html=1;entryX=0.5;entryY=1;entryDx=0;entryDy=0;" edge="1" parent="1" source="m2hpCEHAZhAkWBh7MES9-38" target="m2hpCEHAZhAkWBh7MES9-47">
          <mxGeometry relative="1" as="geometry" />
        </mxCell>
        <mxCell id="m2hpCEHAZhAkWBh7MES9-38" value="ACL Service" style="rounded=0;whiteSpace=wrap;html=1;" vertex="1" parent="1">
          <mxGeometry x="600" y="418" width="160" height="80" as="geometry" />
        </mxCell>
        <mxCell id="m2hpCEHAZhAkWBh7MES9-41" value="" style="html=1;verticalLabelPosition=bottom;align=center;labelBackgroundColor=#ffffff;verticalAlign=top;strokeWidth=2;strokeColor=#0080F0;shadow=0;dashed=0;shape=mxgraph.ios7.icons.data;" vertex="1" parent="1">
          <mxGeometry x="702.28" y="229" width="31.43" height="44" as="geometry" />
        </mxCell>
        <mxCell id="m2hpCEHAZhAkWBh7MES9-42" value="Groups" style="text;html=1;align=center;verticalAlign=middle;resizable=0;points=[];autosize=1;strokeColor=none;fillColor=none;fontSize=9;" vertex="1" parent="1">
          <mxGeometry x="693" y="211" width="50" height="20" as="geometry" />
        </mxCell>
        <mxCell id="m2hpCEHAZhAkWBh7MES9-43" value="" style="html=1;verticalLabelPosition=bottom;align=center;labelBackgroundColor=#ffffff;verticalAlign=top;strokeWidth=2;strokeColor=#0080F0;shadow=0;dashed=0;shape=mxgraph.ios7.icons.data;" vertex="1" parent="1">
          <mxGeometry x="622.28" y="296" width="31.43" height="44" as="geometry" />
        </mxCell>
        <mxCell id="m2hpCEHAZhAkWBh7MES9-44" value="Access Controls" style="text;html=1;align=center;verticalAlign=middle;resizable=0;points=[];autosize=1;strokeColor=none;fillColor=none;fontSize=9;" vertex="1" parent="1">
          <mxGeometry x="593" y="278" width="90" height="20" as="geometry" />
        </mxCell>
        <mxCell id="m2hpCEHAZhAkWBh7MES9-45" value="" style="html=1;verticalLabelPosition=bottom;align=center;labelBackgroundColor=#ffffff;verticalAlign=top;strokeWidth=2;strokeColor=#0080F0;shadow=0;dashed=0;shape=mxgraph.ios7.icons.data;" vertex="1" parent="1">
          <mxGeometry x="702.28" y="296" width="31.43" height="44" as="geometry" />
        </mxCell>
        <mxCell id="m2hpCEHAZhAkWBh7MES9-46" value="Resource Access??" style="text;html=1;align=center;verticalAlign=middle;resizable=0;points=[];autosize=1;strokeColor=none;fillColor=none;fontSize=9;" vertex="1" parent="1">
          <mxGeometry x="668" y="278" width="100" height="20" as="geometry" />
        </mxCell>
        <mxCell id="m2hpCEHAZhAkWBh7MES9-48" value="ACL / Access DB" style="text;html=1;align=center;verticalAlign=middle;resizable=0;points=[];autosize=1;strokeColor=none;fillColor=none;" vertex="1" parent="1">
          <mxGeometry x="594" y="174" width="110" height="30" as="geometry" />
        </mxCell>
        <mxCell id="m2hpCEHAZhAkWBh7MES9-51" value="Function Manager Service" style="rounded=0;whiteSpace=wrap;html=1;" vertex="1" parent="1">
          <mxGeometry x="600" y="609" width="160" height="80" as="geometry" />
        </mxCell>
        <mxCell id="m2hpCEHAZhAkWBh7MES9-53" value="&lt;font style=&quot;font-size: 9px;&quot;&gt;gRPC&lt;/font&gt;" style="text;html=1;align=center;verticalAlign=middle;resizable=0;points=[];autosize=1;strokeColor=none;fillColor=none;" vertex="1" parent="1">
          <mxGeometry x="534" y="625" width="50" height="30" as="geometry" />
        </mxCell>
        <mxCell id="m2hpCEHAZhAkWBh7MES9-55" value="" style="html=1;verticalLabelPosition=bottom;align=center;labelBackgroundColor=#ffffff;verticalAlign=top;strokeWidth=2;strokeColor=#0080F0;shadow=0;dashed=0;shape=mxgraph.ios7.icons.data;" vertex="1" parent="1">
          <mxGeometry x="655" y="761" width="50" height="70" as="geometry" />
        </mxCell>
        <mxCell id="m2hpCEHAZhAkWBh7MES9-56" value="Function Configuration" style="text;html=1;align=center;verticalAlign=middle;resizable=0;points=[];autosize=1;strokeColor=none;fillColor=none;" vertex="1" parent="1">
          <mxGeometry x="610" y="829" width="140" height="30" as="geometry" />
        </mxCell>
        <mxCell id="m2hpCEHAZhAkWBh7MES9-57" style="edgeStyle=orthogonalEdgeStyle;rounded=0;orthogonalLoop=1;jettySize=auto;html=1;entryX=0.5;entryY=0;entryDx=0;entryDy=0;entryPerimeter=0;" edge="1" parent="1" source="m2hpCEHAZhAkWBh7MES9-51" target="m2hpCEHAZhAkWBh7MES9-55">
          <mxGeometry relative="1" as="geometry" />
        </mxCell>
        <mxCell id="m2hpCEHAZhAkWBh7MES9-58" value="HTTP" style="text;html=1;align=center;verticalAlign=middle;resizable=0;points=[];autosize=1;strokeColor=none;fillColor=none;" vertex="1" parent="1">
          <mxGeometry x="437" y="529" width="50" height="30" as="geometry" />
        </mxCell>
        <mxCell id="m2hpCEHAZhAkWBh7MES9-59" value="" style="verticalLabelPosition=bottom;html=1;verticalAlign=top;align=center;strokeColor=none;fillColor=#00BEF2;shape=mxgraph.azure.queue_generic;pointerEvents=1;" vertex="1" parent="1">
          <mxGeometry x="850" y="631.5" width="116.67" height="35" as="geometry" />
        </mxCell>
        <mxCell id="m2hpCEHAZhAkWBh7MES9-60" style="edgeStyle=orthogonalEdgeStyle;rounded=0;orthogonalLoop=1;jettySize=auto;html=1;entryX=0;entryY=0.5;entryDx=0;entryDy=0;entryPerimeter=0;" edge="1" parent="1" source="m2hpCEHAZhAkWBh7MES9-51" target="m2hpCEHAZhAkWBh7MES9-59">
          <mxGeometry relative="1" as="geometry" />
        </mxCell>
        <mxCell id="m2hpCEHAZhAkWBh7MES9-61" value="RabbitMQ" style="text;html=1;align=center;verticalAlign=middle;resizable=0;points=[];autosize=1;strokeColor=none;fillColor=none;" vertex="1" parent="1">
          <mxGeometry x="866" y="608" width="80" height="30" as="geometry" />
        </mxCell>
        <mxCell id="m2hpCEHAZhAkWBh7MES9-62" value="{ fn. config }" style="text;html=1;align=center;verticalAlign=middle;resizable=0;points=[];autosize=1;strokeColor=none;fillColor=none;" vertex="1" parent="1">
          <mxGeometry x="861" y="661.5" width="90" height="30" as="geometry" />
        </mxCell>
        <mxCell id="m2hpCEHAZhAkWBh7MES9-82" style="edgeStyle=orthogonalEdgeStyle;rounded=0;orthogonalLoop=1;jettySize=auto;html=1;entryX=0;entryY=0.5;entryDx=0;entryDy=0;" edge="1" parent="1" source="m2hpCEHAZhAkWBh7MES9-63" target="m2hpCEHAZhAkWBh7MES9-69">
          <mxGeometry relative="1" as="geometry" />
        </mxCell>
        <mxCell id="m2hpCEHAZhAkWBh7MES9-83" style="edgeStyle=orthogonalEdgeStyle;rounded=0;orthogonalLoop=1;jettySize=auto;html=1;" edge="1" parent="1" source="m2hpCEHAZhAkWBh7MES9-63" target="m2hpCEHAZhAkWBh7MES9-74">
          <mxGeometry relative="1" as="geometry" />
        </mxCell>
        <mxCell id="m2hpCEHAZhAkWBh7MES9-84" style="edgeStyle=orthogonalEdgeStyle;rounded=0;orthogonalLoop=1;jettySize=auto;html=1;entryX=0;entryY=0.5;entryDx=0;entryDy=0;" edge="1" parent="1" source="m2hpCEHAZhAkWBh7MES9-63" target="m2hpCEHAZhAkWBh7MES9-76">
          <mxGeometry relative="1" as="geometry" />
        </mxCell>
        <mxCell id="m2hpCEHAZhAkWBh7MES9-63" value="Function Bootstrap&lt;div&gt;Service:5112&lt;/div&gt;" style="rounded=0;whiteSpace=wrap;html=1;" vertex="1" parent="1">
          <mxGeometry x="1040" y="609" width="130" height="80" as="geometry" />
        </mxCell>
        <mxCell id="m2hpCEHAZhAkWBh7MES9-64" style="edgeStyle=orthogonalEdgeStyle;rounded=0;orthogonalLoop=1;jettySize=auto;html=1;entryX=1;entryY=0.51;entryDx=0;entryDy=0;entryPerimeter=0;" edge="1" parent="1" source="m2hpCEHAZhAkWBh7MES9-63" target="m2hpCEHAZhAkWBh7MES9-59">
          <mxGeometry relative="1" as="geometry" />
        </mxCell>
        <mxCell id="m2hpCEHAZhAkWBh7MES9-66" value="Virtual Machine" style="text;html=1;align=center;verticalAlign=middle;resizable=0;points=[];autosize=1;strokeColor=none;fillColor=none;" vertex="1" parent="1">
          <mxGeometry x="1047" y="479" width="110" height="30" as="geometry" />
        </mxCell>
        <mxCell id="m2hpCEHAZhAkWBh7MES9-69" value="" style="rounded=1;whiteSpace=wrap;html=1;fillColor=none;strokeColor=#1DBFF0;dashed=1;dashPattern=12 12;" vertex="1" parent="1">
          <mxGeometry x="1240" y="520" width="160" height="80" as="geometry" />
        </mxCell>
        <mxCell id="m2hpCEHAZhAkWBh7MES9-73" value="" style="image;sketch=0;aspect=fixed;html=1;points=[];align=center;fontSize=12;image=img/lib/mscae/Docker.svg;" vertex="1" parent="1">
          <mxGeometry x="1244" y="524" width="20" height="16.4" as="geometry" />
        </mxCell>
        <mxCell id="m2hpCEHAZhAkWBh7MES9-74" value="" style="rounded=1;whiteSpace=wrap;html=1;fillColor=none;strokeColor=#1DBFF0;dashed=1;dashPattern=12 12;" vertex="1" parent="1">
          <mxGeometry x="1240" y="609" width="160" height="80" as="geometry" />
        </mxCell>
        <mxCell id="m2hpCEHAZhAkWBh7MES9-75" value="" style="image;sketch=0;aspect=fixed;html=1;points=[];align=center;fontSize=12;image=img/lib/mscae/Docker.svg;" vertex="1" parent="1">
          <mxGeometry x="1244" y="613" width="20" height="16.4" as="geometry" />
        </mxCell>
        <mxCell id="m2hpCEHAZhAkWBh7MES9-76" value="" style="rounded=1;whiteSpace=wrap;html=1;fillColor=none;strokeColor=#1DBFF0;dashed=1;dashPattern=12 12;" vertex="1" parent="1">
          <mxGeometry x="1240" y="700" width="160" height="80" as="geometry" />
        </mxCell>
        <mxCell id="m2hpCEHAZhAkWBh7MES9-77" value="" style="image;sketch=0;aspect=fixed;html=1;points=[];align=center;fontSize=12;image=img/lib/mscae/Docker.svg;" vertex="1" parent="1">
          <mxGeometry x="1244" y="704" width="20" height="16.4" as="geometry" />
        </mxCell>
        <mxCell id="m2hpCEHAZhAkWBh7MES9-78" value="&lt;font style=&quot;font-size: 8px;&quot;&gt;org-fn-name&lt;/font&gt;" style="rounded=1;whiteSpace=wrap;html=1;" vertex="1" parent="1">
          <mxGeometry x="1250" y="550" width="100" height="20" as="geometry" />
        </mxCell>
        <mxCell id="m2hpCEHAZhAkWBh7MES9-79" value="&lt;font style=&quot;font-size: 8px;&quot;&gt;org-fn-name&lt;/font&gt;" style="rounded=1;whiteSpace=wrap;html=1;strokeColor=default;align=center;verticalAlign=middle;fontFamily=Helvetica;fontSize=12;fontColor=default;fillColor=default;" vertex="1" parent="1">
          <mxGeometry x="1250" y="639" width="100" height="20" as="geometry" />
        </mxCell>
        <mxCell id="m2hpCEHAZhAkWBh7MES9-80" value="&lt;font style=&quot;font-size: 8px;&quot;&gt;org-fn-name&lt;/font&gt;" style="rounded=1;whiteSpace=wrap;html=1;" vertex="1" parent="1">
          <mxGeometry x="1250" y="730" width="100" height="20" as="geometry" />
        </mxCell>
        <mxCell id="m2hpCEHAZhAkWBh7MES9-94" style="edgeStyle=orthogonalEdgeStyle;rounded=0;orthogonalLoop=1;jettySize=auto;html=1;entryX=1;entryY=0.5;entryDx=0;entryDy=0;" edge="1" parent="1" source="m2hpCEHAZhAkWBh7MES9-86" target="m2hpCEHAZhAkWBh7MES9-87">
          <mxGeometry relative="1" as="geometry" />
        </mxCell>
        <mxCell id="m2hpCEHAZhAkWBh7MES9-86" value="GET [org]-[function-name].[zone].fns&lt;span style=&quot;background-color: initial;&quot;&gt;.yoop.com&lt;/span&gt;" style="text;html=1;align=center;verticalAlign=middle;resizable=0;points=[];autosize=1;strokeColor=none;fillColor=none;" vertex="1" parent="1">
          <mxGeometry x="1760" y="634" width="270" height="30" as="geometry" />
        </mxCell>
        <mxCell id="m2hpCEHAZhAkWBh7MES9-97" style="edgeStyle=orthogonalEdgeStyle;rounded=0;orthogonalLoop=1;jettySize=auto;html=1;entryX=1;entryY=0.5;entryDx=0;entryDy=0;" edge="1" parent="1" source="m2hpCEHAZhAkWBh7MES9-87" target="m2hpCEHAZhAkWBh7MES9-69">
          <mxGeometry relative="1" as="geometry" />
        </mxCell>
        <mxCell id="m2hpCEHAZhAkWBh7MES9-98" style="edgeStyle=orthogonalEdgeStyle;rounded=0;orthogonalLoop=1;jettySize=auto;html=1;entryX=1;entryY=0.5;entryDx=0;entryDy=0;" edge="1" parent="1" source="m2hpCEHAZhAkWBh7MES9-87" target="m2hpCEHAZhAkWBh7MES9-74">
          <mxGeometry relative="1" as="geometry" />
        </mxCell>
        <mxCell id="m2hpCEHAZhAkWBh7MES9-99" style="edgeStyle=orthogonalEdgeStyle;rounded=0;orthogonalLoop=1;jettySize=auto;html=1;entryX=1;entryY=0.5;entryDx=0;entryDy=0;" edge="1" parent="1" source="m2hpCEHAZhAkWBh7MES9-87" target="m2hpCEHAZhAkWBh7MES9-76">
          <mxGeometry relative="1" as="geometry" />
        </mxCell>
        <mxCell id="m2hpCEHAZhAkWBh7MES9-87" value="Proxy" style="rounded=0;whiteSpace=wrap;html=1;" vertex="1" parent="1">
          <mxGeometry x="1580" y="519" width="100" height="260" as="geometry" />
        </mxCell>
        <mxCell id="m2hpCEHAZhAkWBh7MES9-88" value="[zone].fns.yoop.com:443" style="text;html=1;align=center;verticalAlign=middle;resizable=0;points=[];autosize=1;strokeColor=none;fillColor=none;fontSize=8;" vertex="1" parent="1">
          <mxGeometry x="1575" y="522.2" width="110" height="20" as="geometry" />
        </mxCell>
        <mxCell id="m2hpCEHAZhAkWBh7MES9-89" value="yoop.com" style="text;html=1;align=center;verticalAlign=middle;resizable=0;points=[];autosize=1;strokeColor=none;fillColor=none;" vertex="1" parent="1">
          <mxGeometry x="172" y="796" width="80" height="30" as="geometry" />
        </mxCell>
        <mxCell id="m2hpCEHAZhAkWBh7MES9-90" value="www.yoop.com" style="text;html=1;align=center;verticalAlign=middle;resizable=0;points=[];autosize=1;strokeColor=none;fillColor=none;" vertex="1" parent="1">
          <mxGeometry x="14" y="320" width="100" height="30" as="geometry" />
        </mxCell>
        <mxCell id="m2hpCEHAZhAkWBh7MES9-91" value="dashboard.yoop.com" style="text;html=1;align=center;verticalAlign=middle;resizable=0;points=[];autosize=1;strokeColor=none;fillColor=none;" vertex="1" parent="1">
          <mxGeometry x="11" y="540" width="140" height="30" as="geometry" />
        </mxCell>
        <mxCell id="m2hpCEHAZhAkWBh7MES9-93" style="edgeStyle=orthogonalEdgeStyle;rounded=0;orthogonalLoop=1;jettySize=auto;html=1;" edge="1" parent="1" source="m2hpCEHAZhAkWBh7MES9-92" target="m2hpCEHAZhAkWBh7MES9-86">
          <mxGeometry relative="1" as="geometry" />
        </mxCell>
        <mxCell id="m2hpCEHAZhAkWBh7MES9-92" value="Client / Consumer" style="rounded=0;whiteSpace=wrap;html=1;" vertex="1" parent="1">
          <mxGeometry x="2120" y="519" width="80" height="260" as="geometry" />
        </mxCell>
        <mxCell id="m2hpCEHAZhAkWBh7MES9-95" value="HTTP" style="text;html=1;align=center;verticalAlign=middle;resizable=0;points=[];autosize=1;strokeColor=none;fillColor=none;" vertex="1" parent="1">
          <mxGeometry x="1870" y="650" width="50" height="30" as="geometry" />
        </mxCell>
        <mxCell id="m2hpCEHAZhAkWBh7MES9-105" style="edgeStyle=orthogonalEdgeStyle;rounded=0;orthogonalLoop=1;jettySize=auto;html=1;entryX=1;entryY=0.5;entryDx=0;entryDy=0;" edge="1" parent="1" source="m2hpCEHAZhAkWBh7MES9-100" target="m2hpCEHAZhAkWBh7MES9-78">
          <mxGeometry relative="1" as="geometry" />
        </mxCell>
        <mxCell id="m2hpCEHAZhAkWBh7MES9-100" value="&lt;font style=&quot;font-size: 8px;&quot;&gt;LB&lt;/font&gt;" style="whiteSpace=wrap;html=1;" vertex="1" parent="1">
          <mxGeometry x="1380" y="535" width="20" height="50" as="geometry" />
        </mxCell>
        <mxCell id="m2hpCEHAZhAkWBh7MES9-106" style="edgeStyle=orthogonalEdgeStyle;rounded=0;orthogonalLoop=1;jettySize=auto;html=1;entryX=1;entryY=0.5;entryDx=0;entryDy=0;" edge="1" parent="1" source="m2hpCEHAZhAkWBh7MES9-101" target="m2hpCEHAZhAkWBh7MES9-79">
          <mxGeometry relative="1" as="geometry" />
        </mxCell>
        <mxCell id="m2hpCEHAZhAkWBh7MES9-107" style="edgeStyle=orthogonalEdgeStyle;rounded=0;orthogonalLoop=1;jettySize=auto;html=1;entryX=1;entryY=0.5;entryDx=0;entryDy=0;" edge="1" parent="1" source="m2hpCEHAZhAkWBh7MES9-101" target="m2hpCEHAZhAkWBh7MES9-103">
          <mxGeometry relative="1" as="geometry">
            <Array as="points">
              <mxPoint x="1370" y="649" />
              <mxPoint x="1370" y="674" />
            </Array>
          </mxGeometry>
        </mxCell>
        <mxCell id="m2hpCEHAZhAkWBh7MES9-101" value="&lt;font style=&quot;font-size: 8px;&quot;&gt;LB&lt;/font&gt;" style="whiteSpace=wrap;html=1;" vertex="1" parent="1">
          <mxGeometry x="1380" y="624" width="20" height="50" as="geometry" />
        </mxCell>
        <mxCell id="m2hpCEHAZhAkWBh7MES9-108" style="edgeStyle=orthogonalEdgeStyle;rounded=0;orthogonalLoop=1;jettySize=auto;html=1;entryX=1;entryY=0.5;entryDx=0;entryDy=0;" edge="1" parent="1" source="m2hpCEHAZhAkWBh7MES9-102" target="m2hpCEHAZhAkWBh7MES9-80">
          <mxGeometry relative="1" as="geometry" />
        </mxCell>
        <mxCell id="m2hpCEHAZhAkWBh7MES9-109" style="edgeStyle=orthogonalEdgeStyle;rounded=0;orthogonalLoop=1;jettySize=auto;html=1;entryX=1;entryY=0.5;entryDx=0;entryDy=0;" edge="1" parent="1" source="m2hpCEHAZhAkWBh7MES9-102" target="m2hpCEHAZhAkWBh7MES9-104">
          <mxGeometry relative="1" as="geometry">
            <Array as="points">
              <mxPoint x="1370" y="740" />
              <mxPoint x="1370" y="764" />
            </Array>
          </mxGeometry>
        </mxCell>
        <mxCell id="m2hpCEHAZhAkWBh7MES9-102" value="&lt;font style=&quot;font-size: 8px;&quot;&gt;LB&lt;/font&gt;" style="whiteSpace=wrap;html=1;" vertex="1" parent="1">
          <mxGeometry x="1380" y="715" width="20" height="50" as="geometry" />
        </mxCell>
        <mxCell id="m2hpCEHAZhAkWBh7MES9-103" value="&lt;font style=&quot;font-size: 8px;&quot;&gt;org-fn-name&lt;/font&gt;" style="rounded=1;whiteSpace=wrap;html=1;strokeColor=default;align=center;verticalAlign=middle;fontFamily=Helvetica;fontSize=12;fontColor=default;fillColor=default;" vertex="1" parent="1">
          <mxGeometry x="1250" y="663.5" width="100" height="20" as="geometry" />
        </mxCell>
        <mxCell id="m2hpCEHAZhAkWBh7MES9-104" value="&lt;font style=&quot;font-size: 8px;&quot;&gt;org-fn-name&lt;/font&gt;" style="rounded=1;whiteSpace=wrap;html=1;" vertex="1" parent="1">
          <mxGeometry x="1250" y="754" width="100" height="20" as="geometry" />
        </mxCell>
      </root>
    </mxGraphModel>
  </diagram>
</mxfile>
